<svg width="105" height="31" viewBox="0 0 105 31" fill="none" xmlns="http://www.w3.org/2000/svg">
<path d="M22.84 30.4L19.72 22.4H6.76L3.64 30.32L0.4 29L11.36 2H15.52L26.32 29L22.84 30.4ZM7.96 19.2H18.48L13.24 5.76L7.96 19.2ZM36.2388 30.48C35.0121 30.48 33.9054 30.2533 32.9188 29.8C31.9321 29.32 31.1454 28.56 30.5588 27.52C29.9988 26.48 29.7188 25.1333 29.7188 23.48V0.4H33.3188V23.12C33.3188 24.56 33.6121 25.6267 34.1988 26.32C34.8121 27.0133 35.6521 27.36 36.7188 27.36C37.2254 27.36 37.7188 27.3067 38.1988 27.2C38.7054 27.0667 39.1321 26.92 39.4788 26.76L40.3588 29.68C39.8788 29.8933 39.2788 30.08 38.5588 30.24C37.8654 30.4 37.0921 30.48 36.2388 30.48ZM43.7469 30V9.2H47.3469V30H43.7469ZM45.5469 5.64C44.8535 5.64 44.2535 5.38667 43.7469 4.88C43.2669 4.37333 43.0269 3.78667 43.0269 3.12C43.0269 2.34667 43.2535 1.73333 43.7069 1.28C44.1602 0.826666 44.7735 0.599999 45.5469 0.599999C46.2402 0.599999 46.8269 0.853333 47.3069 1.36C47.8135 1.84 48.0669 2.42667 48.0669 3.12C48.0669 3.86666 47.8402 4.48 47.3869 4.96C46.9335 5.41333 46.3202 5.64 45.5469 5.64ZM59.3069 30L50.9469 10.16L54.2269 8.8L61.3069 25.92L68.3869 8.8L71.4669 10.16L63.0669 30H59.3069ZM75.075 30V9.2H78.675V30H75.075ZM76.875 5.64C76.1817 5.64 75.5817 5.38667 75.075 4.88C74.595 4.37333 74.355 3.78667 74.355 3.12C74.355 2.34667 74.5817 1.73333 75.035 1.28C75.4883 0.826666 76.1017 0.599999 76.875 0.599999C77.5683 0.599999 78.155 0.853333 78.635 1.36C79.1417 1.84 79.395 2.42667 79.395 3.12C79.395 3.86666 79.1683 4.48 78.715 4.96C78.2617 5.41333 77.6483 5.64 76.875 5.64ZM93.835 30.48C91.8617 30.48 90.0883 30.0267 88.515 29.12C86.9417 28.1867 85.7017 26.9067 84.795 25.28C83.915 23.6267 83.475 21.7333 83.475 19.6C83.475 17.36 83.9283 15.4267 84.835 13.8C85.7417 12.1733 86.9817 10.92 88.555 10.04C90.1283 9.16 91.8883 8.72 93.835 8.72C95.7817 8.72 97.5283 9.16 99.075 10.04C100.648 10.92 101.888 12.1733 102.795 13.8C103.728 15.4 104.195 17.3067 104.195 19.52C104.195 21.7333 103.742 23.6667 102.835 25.32C101.928 26.9467 100.688 28.2133 99.115 29.12C97.5683 30.0267 95.8083 30.48 93.835 30.48ZM93.835 27.28C95.9417 27.28 97.5817 26.5733 98.755 25.16C99.9283 23.72 100.515 21.8667 100.515 19.6C100.515 18.2133 100.222 16.9467 99.635 15.8C99.0483 14.6267 98.2483 13.6933 97.235 13C96.2483 12.28 95.115 11.92 93.835 11.92C91.7283 11.92 90.0883 12.6133 88.915 14C87.7417 15.3867 87.155 17.2267 87.155 19.52C87.155 20.9067 87.4483 22.2 88.035 23.4C88.6217 24.5733 89.4083 25.52 90.395 26.24C91.4083 26.9333 92.555 27.28 93.835 27.28Z" fill="white"/>
</svg>
